<?xml version="1.0" standalone="no"?>
<!DOCTYPE svg PUBLIC "-//W3C//DTD SVG 20010904//EN"
 "http://www.w3.org/TR/2001/REC-SVG-20010904/DTD/svg10.dtd">
<svg version="1.0" xmlns="http://www.w3.org/2000/svg"
 width="831.000000pt" height="831.000000pt" viewBox="0 0 831.000000 831.000000"
 preserveAspectRatio="xMidYMid meet">
<metadata>
Created by potrace 1.14, written by Peter Selinger 2001-2017
</metadata>
<g transform="translate(0.000000,831.000000) scale(0.100000,-0.100000)"
fill="#000000" stroke="none">
<path d="M5433 6025 c0 -8 3 -15 7 -15 12 0 73 -65 100 -105 14 -20 39 -54 56
-74 26 -32 30 -43 28 -91 -2 -37 4 -67 16 -92 18 -35 12 -43 -19 -24 -9 6 -9
2 3 -15 18 -28 17 -66 -1 -73 -7 -3 -13 -19 -13 -37 0 -23 -4 -30 -14 -26 -14
6 -26 -12 -26 -36 0 -7 7 -4 14 6 19 24 29 6 16 -28 -6 -15 -8 -31 -4 -36 3
-5 2 -8 -3 -7 -4 2 -18 -7 -30 -19 -15 -15 -18 -24 -10 -32 8 -8 5 -11 -11
-11 -15 0 -22 -6 -22 -19 0 -11 -5 -23 -10 -26 -6 -4 -7 -11 -4 -17 4 -6 12 2
20 18 19 44 16 15 -4 -38 -15 -40 -20 -45 -36 -36 -10 6 -16 6 -13 1 3 -5 1
-15 -4 -23 -7 -12 -10 -10 -16 9 -6 23 -7 23 -13 5 -4 -10 -4 -29 1 -41 5 -13
4 -25 -1 -28 -6 -4 -10 -12 -10 -18 0 -7 5 -4 11 6 5 9 15 17 21 17 6 0 7 -7
3 -17 -4 -10 -10 -24 -13 -32 -3 -9 -1 -12 6 -7 7 4 12 1 12 -8 0 -9 -5 -16
-11 -16 -6 0 -8 -9 -4 -22 5 -18 4 -20 -4 -8 -8 12 -11 5 -11 -26 0 -33 -4
-43 -19 -47 -15 -4 -18 -1 -14 12 3 9 11 22 16 29 5 7 7 16 3 20 -4 4 -13 -2
-19 -13 -11 -20 -14 -29 -20 -75 -3 -17 -10 -24 -21 -22 -9 2 -16 -4 -16 -13
0 -10 5 -13 13 -9 9 6 9 4 -1 -8 -7 -8 -11 -22 -9 -29 2 -8 2 -11 0 -6 -8 14
-23 -4 -23 -29 0 -13 -5 -24 -11 -24 -10 0 -7 31 7 83 8 25 -12 21 -44 -10
-17 -17 -26 -36 -24 -46 2 -11 -5 -25 -17 -33 -22 -16 -29 -44 -11 -44 6 0 10
-9 10 -21 0 -11 -4 -17 -10 -14 -5 3 -15 -5 -22 -19 -12 -28 -24 -33 -31 -13
-2 7 -8 8 -13 3 -5 -5 -4 -11 4 -13 6 -3 12 -9 12 -15 0 -12 -63 -69 -69 -62
-2 2 6 12 17 23 24 20 30 37 10 24 -7 -4 -29 -8 -48 -8 -21 0 -35 -5 -35 -12
0 -15 -13 -18 -23 -7 -4 4 -1 4 7 -1 9 -5 12 -4 7 3 -4 7 -15 8 -30 2 -12 -4
-29 -8 -37 -8 -40 2 -69 -3 -69 -13 0 -6 6 -9 13 -6 10 4 12 -3 9 -25 -4 -23
-2 -29 8 -23 9 5 11 4 6 -4 -6 -8 -12 -9 -20 -2 -14 12 -26 5 -26 -16 0 -10 6
-12 20 -8 11 3 28 2 37 -4 14 -8 15 -11 3 -11 -10 -1 -9 -4 4 -9 24 -9 29 -38
9 -45 -11 -4 -13 -2 -9 9 4 13 2 14 -14 5 -27 -15 -34 -29 -16 -36 21 -8 20
-17 -5 -32 -18 -11 -20 -11 -16 0 2 7 0 21 -5 31 -5 10 -5 17 1 17 5 0 11 14
13 30 3 17 1 30 -3 30 -13 0 -20 -17 -21 -54 -1 -33 -3 -35 -27 -30 -26 6 -26
6 -6 -11 16 -13 17 -16 3 -11 -10 3 -20 1 -23 -5 -4 -5 -3 -9 2 -8 4 1 19 1
33 0 25 -2 25 -2 -5 -18 -45 -25 -53 -24 -49 9 3 26 1 29 -19 23 -12 -4 -29
-15 -37 -24 -9 -10 -20 -16 -26 -14 -6 2 -11 -3 -11 -11 0 -8 6 -12 14 -9 7 3
13 -2 13 -11 0 -16 -2 -16 -29 0 -17 10 -28 21 -25 26 6 10 -18 11 -41 2 -14
-6 -12 -10 12 -25 21 -14 23 -19 11 -19 -10 0 -18 6 -18 12 0 7 -15 -5 -34
-26 -28 -33 -37 -38 -60 -32 -24 6 -26 4 -22 -17 5 -27 -12 -60 -20 -40 -4 9
-11 9 -31 0 -21 -9 -27 -9 -31 1 -3 10 -7 10 -18 1 -12 -9 -13 -9 -9 4 4 8 0
18 -7 23 -7 4 -10 4 -6 0 3 -4 2 -21 -2 -37 -9 -30 -2 -37 18 -17 16 16 28 2
13 -16 -6 -8 -21 -12 -31 -9 -13 3 -20 0 -20 -8 0 -9 -11 -14 -33 -13 -52 2
-57 3 -51 17 4 12 -11 15 -46 8 -3 -1 2 -6 10 -11 9 -6 10 -10 3 -10 -6 0 -19
-3 -28 -6 -13 -5 -16 -2 -13 12 2 11 -6 28 -21 41 -24 22 -25 22 -6 43 22 24
15 38 -8 15 -19 -19 -27 -19 -27 -1 0 8 6 16 14 19 7 3 13 18 13 34 0 15 -2
22 -4 16 -5 -15 -29 -17 -38 -4 -3 5 2 17 11 25 11 11 14 25 9 46 -4 20 -3 30
5 30 7 0 10 -7 6 -17 -5 -15 -4 -15 9 1 8 11 15 23 15 28 0 12 -34 10 -47 -3
-8 -8 -10 -1 -6 28 7 52 -17 64 -53 28 -29 -29 -34 -30 -34 -10 0 18 -5 19
-32 4 -17 -9 -24 -8 -33 5 -7 10 -19 14 -29 10 -9 -3 -16 -1 -16 5 0 6 5 11
11 11 5 0 7 5 3 11 -3 6 -9 7 -13 3 -3 -5 -15 -16 -25 -24 -18 -14 -19 -13
-14 12 5 26 4 27 -29 22 -24 -4 -35 -1 -39 10 -3 8 -12 12 -20 9 -9 -3 -13
-12 -10 -19 3 -8 1 -14 -5 -14 -13 0 -79 67 -79 80 0 6 -4 10 -10 10 -5 0 -10
-4 -10 -9 0 -17 -103 4 -121 25 -7 9 -8 14 -1 14 6 0 13 -6 15 -12 3 -7 6 -3
6 9 1 26 -56 60 -73 43 -15 -15 -52 -12 -66 5 -14 16 -31 10 -67 -25 -13 -11
-23 -18 -23 -14 0 3 -11 -1 -25 -10 -14 -9 -30 -14 -35 -11 -6 3 -10 1 -10 -4
0 -6 9 -11 20 -11 13 0 18 -5 14 -15 -4 -8 -17 -15 -29 -15 -13 0 -35 -4 -48
-9 -23 -9 -25 -7 -22 14 1 14 7 31 13 38 9 10 8 17 0 25 -17 17 -38 15 -38 -4
0 -11 -6 -13 -19 -9 -15 4 -23 -1 -33 -22 -7 -15 -20 -29 -28 -29 -33 -3 -34
-5 -12 -17 l23 -13 -21 -24 c-23 -27 -26 -42 -6 -34 9 3 13 -1 13 -12 -1 -9 4
-19 11 -21 7 -3 10 1 6 10 -3 8 -1 18 5 22 22 13 23 -27 2 -56 l-22 -29 26
-12 c14 -6 25 -17 25 -25 0 -7 6 -14 13 -14 46 -4 68 -19 62 -39 -8 -26 10
-33 31 -13 17 17 17 17 11 1 -3 -10 1 -24 10 -34 15 -15 18 -15 29 0 7 10 15
13 18 7 9 -13 -28 -33 -48 -25 -10 4 -16 1 -16 -9 0 -27 -22 -31 -41 -9 -9 12
-23 22 -30 22 -10 0 -10 -3 -1 -12 15 -15 16 -32 1 -22 -8 4 -9 0 -4 -15 4
-14 2 -23 -9 -27 -8 -3 -12 -12 -9 -20 3 -9 -1 -14 -12 -14 -14 0 -15 -3 -5
-15 15 -18 42 -2 33 21 -3 8 -1 14 5 14 14 0 23 -28 11 -36 -6 -3 -8 -12 -5
-20 7 -19 -19 -18 -49 2 -22 14 -26 14 -55 -8 -19 -14 -26 -24 -18 -26 7 -3
18 -11 25 -19 10 -13 16 -12 42 7 l31 21 -2 -40 c-1 -40 -10 -52 -23 -31 -7
12 -25 4 -25 -11 0 -5 9 -9 21 -9 14 0 19 -5 16 -14 -7 -17 16 -39 29 -28 4 4
2 -1 -5 -10 -12 -15 -11 -18 3 -18 10 0 16 -8 16 -21 0 -15 -4 -19 -16 -15 -9
3 -27 -3 -42 -14 -20 -16 -27 -18 -35 -8 -6 9 -7 4 -4 -14 2 -16 0 -28 -4 -28
-12 0 -11 -21 1 -40 8 -12 13 -13 29 -3 17 11 22 9 35 -9 l15 -21 -2 24 c0 13
-6 27 -12 31 -5 4 5 6 24 3 34 -4 56 -15 30 -15 -8 0 -23 -15 -33 -33 -15 -25
-20 -28 -23 -14 -7 28 -31 18 -52 -20 -6 -13 -17 -20 -25 -17 -8 3 -24 -4 -36
-16 -13 -13 -28 -19 -40 -15 -10 3 -21 1 -25 -5 -6 -9 21 -15 53 -11 6 1 12
-3 12 -9 0 -5 -7 -10 -16 -10 -11 0 -14 -6 -9 -20 5 -15 3 -18 -9 -14 -16 6
-21 -13 -18 -58 1 -10 -8 -22 -19 -29 -20 -10 -20 -11 -2 -24 27 -20 12 -26
-31 -14 -29 8 -41 8 -46 -1 -6 -10 -16 -10 -45 0 -31 10 -39 10 -46 -1 -6 -10
-9 -11 -9 -1 0 24 -16 12 -28 -23 -10 -25 -17 -32 -29 -28 -12 5 -15 2 -11
-13 4 -16 -2 -22 -29 -31 -18 -5 -36 -6 -39 -2 -2 5 -15 4 -28 -1 -27 -10 -37
-5 -29 16 3 8 0 14 -6 14 -6 0 -16 11 -21 25 -5 14 -16 25 -25 25 -22 0 -18
-15 9 -36 23 -16 27 -42 5 -29 -5 3 -6 -2 -2 -11 5 -15 1 -16 -35 -11 -23 3
-42 1 -42 -4 0 -5 5 -9 10 -9 6 0 10 -5 10 -11 0 -5 -4 -7 -10 -4 -5 3 -10 1
-10 -4 0 -6 -7 -11 -15 -11 -18 0 -57 -20 -67 -35 -4 -5 -6 -16 -3 -24 4 -9 0
-11 -11 -7 -11 4 -15 2 -11 -7 3 -8 1 -20 -4 -28 -7 -11 -9 -11 -9 -1 0 7 -8
21 -17 30 -15 15 -16 15 -11 1 4 -9 1 -22 -5 -28 -8 -8 -7 -11 5 -11 10 0 16
-8 16 -17 0 -10 1 -24 3 -32 6 -23 -28 -24 -50 -2 -26 26 -26 26 -28 2 -1 -11
5 -22 13 -25 25 -9 15 -26 -15 -26 -17 0 -33 -5 -37 -11 -3 -6 1 -10 12 -9 34
4 43 0 38 -15 -4 -10 -11 -12 -18 -7 -23 17 -51 7 -66 -24 -21 -43 -47 -68
-53 -51 -3 7 -6 5 -6 -5 -1 -25 -18 -22 -26 3 -4 13 -2 25 5 29 18 11 7 33
-18 35 -25 2 -25 4 -12 -29 7 -20 6 -24 -5 -19 -8 3 -15 1 -15 -3 0 -5 -12
-10 -26 -11 -24 -1 -38 -12 -47 -36 -1 -5 -10 -5 -20 -2 -9 4 -14 12 -10 18 4
6 -2 8 -17 4 -13 -3 -32 -1 -43 4 -13 8 -22 8 -30 0 -17 -17 9 -30 47 -24 29
4 30 3 15 -12 -13 -13 -21 -15 -37 -6 -29 16 -36 14 -17 -5 11 -11 13 -20 5
-28 -5 -7 -7 -16 -4 -19 4 -3 -7 -9 -22 -13 -44 -11 -57 -28 -35 -48 22 -20
29 -20 33 -1 2 12 6 11 16 -6 10 -15 10 -19 1 -14 -9 6 -10 0 -7 -19 4 -18 1
-29 -8 -33 -8 -3 -11 -10 -8 -15 4 -6 0 -14 -7 -19 -11 -7 -11 -9 3 -9 14 0
13 -4 -7 -26 -14 -15 -25 -31 -25 -35 0 -5 -7 -9 -16 -9 -13 0 -14 -3 -4 -15
7 -8 16 -12 21 -9 5 3 9 0 9 -5 0 -6 -5 -11 -11 -11 -6 0 -9 -7 -5 -15 3 -8 2
-14 -2 -14 -20 3 -32 -3 -32 -16 0 -9 6 -12 15 -9 8 4 15 2 15 -4 0 -5 -9 -12
-20 -15 -20 -5 -28 -27 -10 -27 19 0 10 -18 -12 -25 -22 -6 -22 -7 7 -20 30
-13 41 -43 20 -57 -6 -5 -6 -8 3 -8 6 0 12 -9 12 -21 0 -12 -4 -17 -11 -14 -7
5 -9 -8 -6 -38 3 -38 0 -46 -15 -50 -10 -3 -16 -2 -13 3 3 4 -2 11 -11 14 -16
6 -16 -1 3 -83 4 -16 2 -22 -6 -17 -10 7 -15 -7 -14 -41 1 -7 -3 -10 -8 -7 -5
3 -9 13 -9 22 -1 15 -2 15 -15 -2 -8 -10 -19 -15 -27 -11 -7 3 -6 0 3 -7 9 -8
22 -31 28 -53 10 -38 7 -60 -7 -39 -12 18 -40 23 -76 13 -39 -11 -48 -34 -16
-42 26 -7 26 -42 -1 -60 -12 -9 -34 -13 -53 -10 -24 3 -35 0 -39 -11 -4 -10
-1 -16 8 -16 8 0 15 -7 15 -15 0 -8 -3 -14 -7 -14 -36 6 -43 -2 -39 -41 2 -22
0 -37 -5 -34 -5 3 -9 14 -9 25 0 10 -4 19 -10 19 -5 0 -9 -3 -9 -7 1 -5 1 -14
0 -22 -1 -12 -4 -11 -14 2 -10 15 -12 11 -11 -25 2 -48 -4 -68 -18 -68 -5 0
-6 9 -3 21 7 21 7 21 -15 -1 -14 -14 -19 -28 -15 -38 6 -13 9 -14 12 -4 4 10
9 8 20 -7 8 -12 21 -21 29 -21 16 0 19 -16 4 -25 -6 -4 -19 4 -30 17 -15 18
-19 19 -20 7 0 -16 -39 -37 -72 -38 -39 -2 -46 -5 -41 -18 3 -7 9 -13 15 -13
5 0 6 5 2 11 -4 7 1 10 12 7 9 -1 17 -7 16 -13 -2 -11 -38 -12 -63 -1 -12 5
-19 -1 -27 -23 -6 -17 -16 -31 -22 -31 -7 0 -10 6 -7 13 5 16 -33 49 -50 43
-7 -3 -13 0 -13 6 0 6 -2 9 -5 7 -10 -11 8 -47 21 -42 8 3 14 1 14 -5 0 -5
-14 -12 -31 -16 -21 -4 -29 -10 -26 -20 7 -18 -17 -28 -31 -14 -6 6 -17 8 -26
5 -13 -5 -13 -9 1 -37 11 -23 18 -29 26 -21 13 13 27 14 27 2 0 -5 -9 -11 -20
-14 -26 -7 -25 -18 3 -47 12 -14 21 -26 20 -27 -8 -8 -2 -23 7 -18 5 3 10 2
10 -4 0 -5 -9 -9 -20 -8 -11 1 -20 6 -20 12 0 5 -9 16 -20 23 -18 11 -20 10
-20 -18 0 -27 -3 -30 -24 -26 -27 5 -40 -13 -29 -41 5 -11 3 -14 -6 -8 -7 4
-5 -5 5 -20 l18 -28 -22 12 c-12 6 -22 17 -22 24 0 7 -8 13 -19 13 -14 0 -18
-7 -17 -27 1 -15 4 -31 8 -34 4 -4 4 -14 1 -23 -5 -12 -1 -14 16 -9 17 4 21 2
17 -9 -3 -8 -1 -14 5 -14 7 0 9 -13 5 -35 -6 -28 -4 -35 9 -35 9 0 15 9 15 22
0 17 3 19 12 10 9 -9 9 -15 0 -24 -17 -17 -15 -55 4 -62 8 -3 13 -9 10 -14 -8
-14 63 0 75 14 9 11 15 11 25 3 21 -17 17 -36 -10 -43 -28 -7 -46 -40 -18 -34
9 2 16 10 14 16 -1 7 2 12 8 12 5 0 10 -4 10 -10 0 -5 7 -10 15 -10 18 0 20
-17 3 -23 -8 -2 -9 -8 -4 -13 5 -5 11 -4 13 4 3 6 17 12 31 12 24 0 66 39 45
41 -5 0 -18 2 -31 3 -14 2 -22 -3 -22 -12 0 -12 -3 -12 -15 -2 -22 18 -20 44
3 35 36 -15 72 -15 72 0 0 8 4 15 10 15 5 0 7 -7 4 -15 -4 -10 0 -15 11 -15
12 0 16 6 12 19 -3 14 1 18 24 19 16 0 30 -6 33 -15 5 -13 4 -14 -8 -4 -10 8
-16 9 -21 1 -3 -5 2 -13 12 -17 38 -14 39 -49 1 -37 -16 5 -20 3 -15 -9 3 -9
-1 -18 -9 -21 -8 -3 -14 -2 -14 3 0 5 -11 9 -25 9 -25 0 -25 -1 -9 -19 18 -20
70 -26 76 -9 2 5 14 11 28 13 19 3 24 10 23 26 -2 11 2 21 7 21 16 0 12 30 -5
36 -19 8 -19 21 0 21 8 0 12 -4 10 -8 -3 -4 1 -9 8 -12 7 -2 13 -17 15 -32 1
-20 -2 -26 -13 -22 -9 4 -12 1 -8 -9 3 -7 9 -14 14 -14 5 0 9 -7 9 -15 0 -8
-7 -15 -15 -15 -8 0 -15 -4 -15 -10 0 -5 -7 -10 -15 -10 -8 0 -15 -4 -15 -10
0 -5 4 -10 9 -10 5 0 7 -9 4 -20 -5 -17 0 -20 30 -20 43 0 50 -9 25 -32 -17
-17 -18 -17 -18 2 l0 20 -20 -20 c-11 -11 -20 -24 -20 -30 0 -5 -8 -10 -17
-10 -19 -1 -59 -27 -52 -34 12 -12 59 -17 59 -6 0 6 5 8 11 5 6 -4 8 -13 5
-21 -3 -7 -1 -16 4 -19 15 -9 12 -25 -5 -25 -8 0 -15 -5 -15 -11 0 -6 -7 -9
-15 -5 -17 6 -21 -9 -5 -19 15 -9 12 -25 -5 -25 -20 0 -19 -36 1 -44 8 -3 12
-2 9 4 -3 6 0 10 8 10 9 0 15 -10 15 -22 1 -89 7 -99 68 -98 16 0 76 -6 134
-14 453 -60 435 -59 652 -52 211 6 226 4 201 -30 -5 -5 1 0 12 12 19 20 75 41
75 29 0 -4 -5 -15 -10 -26 -7 -11 -7 -19 -1 -19 12 0 -5 -65 -26 -97 -16 -23
-43 -32 -43 -12 0 25 -19 -5 -25 -40 -4 -22 -13 -42 -21 -45 -7 -3 -13 -2 -13
2 5 34 -6 29 -26 -13 -22 -44 -25 -47 -25 -22 0 15 7 38 15 51 18 27 10 63
-10 46 -8 -6 -33 -43 -56 -83 -24 -40 -46 -74 -49 -77 -8 -8 -40 -67 -40 -75
0 -14 75 0 82 15 5 12 7 12 7 -2 1 -17 150 -18 2976 -18 l2975 0 -2 1767 c-3
1759 -3 1768 -23 1771 -36 7 -43 24 -7 19 l32 -5 0 384 c0 359 -1 384 -17 384
-10 0 -25 5 -33 11 -11 8 -7 9 18 5 l32 -5 0 333 0 333 -22 11 -23 11 23 0
c20 1 22 6 22 60 l0 58 -67 7 c-38 4 -111 18 -163 31 -52 14 -102 25 -111 25
-23 0 -298 77 -334 94 -16 7 -57 21 -90 30 -58 17 -76 23 -140 51 -16 8 -40
17 -53 20 -31 9 -16 28 17 21 14 -4 55 -13 91 -20 36 -8 101 -23 145 -34 97
-24 334 -62 430 -68 39 -3 93 -9 120 -13 89 -15 155 -14 155 2 0 11 -23 16
-97 20 -54 2 -134 12 -178 20 -44 9 -125 21 -180 27 -100 11 -129 16 -260 45
-38 8 -117 22 -175 31 -58 8 -148 28 -200 44 -52 15 -120 33 -150 40 -84 17
-140 40 -140 56 0 12 15 14 88 9 48 -3 101 -2 117 3 23 7 4 9 -78 10 -60 1
-125 6 -145 11 -50 12 -131 22 -111 13 28 -13 65 -47 73 -67 6 -17 3 -16 -21
6 -15 15 -43 34 -62 44 -34 17 -51 21 -123 32 -21 3 -38 9 -38 14 0 5 -7 9
-15 9 -9 0 -26 6 -38 14 -12 7 -49 19 -82 26 -33 7 -69 17 -80 23 -20 11 -25
12 -54 15 -8 1 -11 5 -8 9 10 9 -25 32 -49 33 -26 0 -106 39 -81 40 31 0 8 20
-24 20 -20 0 -28 4 -23 12 4 7 3 8 -4 4 -6 -4 -28 0 -48 9 -20 8 -41 12 -47 8
-6 -3 -7 -1 -3 5 4 7 1 12 -8 12 -8 0 -38 14 -66 32 -37 23 -54 28 -59 20 -5
-9 -13 -6 -29 8 -12 12 -22 24 -22 28 0 4 -16 12 -35 18 -19 6 -35 10 -35 8 0
-1 15 -11 33 -23 l32 -21 -32 6 c-20 4 -33 2 -33 -4 0 -5 -10 -8 -22 -4 -14 3
-19 1 -14 -6 4 -7 -14 -3 -39 8 -26 11 -53 20 -60 20 -8 0 -17 5 -21 11 -4 8
0 9 15 4 11 -3 21 -2 21 3 0 6 -27 10 -61 9 -38 0 -64 4 -68 12 -5 7 -14 13
-22 14 -8 2 -20 6 -26 10 -7 4 -23 3 -35 -4 -16 -9 -23 -9 -26 0 -5 16 -29 14
-29 -4z m447 -111 c0 -2 -11 -3 -24 -2 -14 1 -23 5 -20 9 4 7 44 0 44 -7z m27
-9 c0 -8 -4 -12 -9 -9 -4 3 -8 9 -8 15 0 5 4 9 8 9 5 0 9 -7 9 -15z m1298
-475 c13 -6 15 -9 5 -9 -8 0 -22 4 -30 9 -18 12 -2 12 25 0z m112 -16 c-3 -3
-12 -4 -19 -1 -8 3 -5 6 6 6 11 1 17 -2 13 -5z m-167 -94 c0 -5 -7 -7 -15 -4
-8 4 -15 8 -15 10 0 2 7 4 15 4 8 0 15 -4 15 -10z m430 -114 c25 -8 62 -21 82
-30 21 -9 51 -16 68 -16 22 0 30 -5 30 -17 0 -13 3 -14 8 -6 4 7 17 10 30 6
12 -3 20 -9 17 -13 -7 -11 -85 -5 -94 6 -3 5 -13 10 -21 11 -21 2 -141 46
-165 60 -27 16 -10 16 45 -1z m265 -86 c3 -5 1 -10 -4 -10 -6 0 -11 5 -11 10
0 6 2 10 4 10 3 0 8 -4 11 -10z m-557 -31 c12 -5 22 -13 22 -18 0 -9 -83 18
-97 33 -8 8 35 -1 75 -15z m-1793 1 c-3 -5 -11 -10 -16 -10 -6 0 -7 5 -4 10 3
6 11 10 16 10 6 0 7 -4 4 -10z m2536 -17 c68 -21 88 -37 34 -28 -22 4 -44 11
-49 16 -6 5 -18 9 -27 9 -10 0 -21 5 -24 10 -9 14 4 13 66 -7z m-671 -18 c16
-9 19 -14 9 -15 -8 0 -24 7 -35 15 -24 18 -7 19 26 0z m65 -35 c3 -6 -1 -7 -9
-4 -18 7 -21 14 -7 14 6 0 13 -4 16 -10z m835 0 c0 -5 -7 -7 -15 -4 -8 4 -15
8 -15 10 0 2 7 4 15 4 8 0 15 -4 15 -10z m-400 -30 c13 -9 13 -10 0 -9 -8 0
-24 4 -35 9 l-20 9 20 0 c11 0 27 -4 35 -9z m88 -24 c38 -12 24 -25 -15 -13
-48 14 -51 16 -33 27 8 5 17 5 20 1 3 -5 15 -11 28 -15z m47 14 l20 -9 -20 0
c-11 0 -27 4 -35 9 -13 9 -13 10 0 9 8 0 24 -4 35 -9z m-205 -30 c8 -5 11 -10
5 -10 -5 0 -17 5 -25 10 -8 5 -10 10 -5 10 6 0 17 -5 25 -10z m180 -45 c41 -9
93 -22 115 -30 l40 -16 -45 5 c-60 7 -168 30 -202 44 -34 14 -37 27 -5 18 12
-4 56 -13 97 -21z m295 -6 c7 -7 0 -8 -20 -3 -16 3 -34 11 -40 17 -7 6 0 7 20
3 17 -4 35 -12 40 -17z m-2983 -131 c-8 -8 -9 -4 -5 13 4 13 8 18 11 10 2 -7
-1 -18 -6 -23z m-1692 -158 c0 -5 -4 -10 -10 -10 -5 0 -10 5 -10 10 0 6 5 10
10 10 6 0 10 -4 10 -10z m1500 -30 c0 -5 -2 -10 -4 -10 -3 0 -8 5 -11 10 -3 6
-1 10 4 10 6 0 11 -4 11 -10z m-120 -40 c0 -5 -5 -10 -11 -10 -5 0 -7 5 -4 10
3 6 8 10 11 10 2 0 4 -4 4 -10z m-1203 -26 c-3 -3 -12 -4 -19 -1 -8 3 -5 6 6
6 11 1 17 -2 13 -5z m1277 -4 c-12 -5 -25 -13 -29 -19 -3 -6 -11 -8 -17 -5
-12 8 29 33 52 33 9 0 6 -4 -6 -9z m-1249 -20 c3 -5 -3 -10 -14 -10 -12 0 -21
5 -21 10 0 6 6 10 14 10 8 0 18 -4 21 -10z m1348 -25 c-3 -9 -8 -14 -10 -11
-3 3 -2 9 2 15 9 16 15 13 8 -4z m-1320 -10 c4 -8 2 -17 -2 -20 -5 -2 -11 4
-14 15 -6 23 8 27 16 5z m1301 -12 c4 -9 2 -21 -4 -27 -7 -7 -10 -7 -10 1 0 6
-3 18 -6 27 -3 9 -2 16 4 16 5 0 13 -8 16 -17z m-984 -30 c0 -5 -5 -15 -10
-23 -8 -12 -10 -11 -10 8 0 12 5 22 10 22 6 0 10 -3 10 -7z m842 -25 c-7 -7
-12 -8 -12 -2 0 6 3 14 7 17 3 4 9 5 12 2 2 -3 -1 -11 -7 -17z m-1722 -8 c0
-5 -7 -7 -15 -4 -8 4 -15 8 -15 10 0 2 7 4 15 4 8 0 15 -4 15 -10z m1543 -105
c-3 -9 -8 -14 -10 -11 -3 3 -2 9 2 15 9 16 15 13 8 -4z m-156 -69 c-4 -9 -13
-13 -22 -10 -8 3 -15 1 -15 -5 0 -6 8 -11 18 -11 16 -1 16 -1 -1 -11 -24 -14
-53 -3 -53 21 0 11 5 19 11 16 6 -2 22 2 35 9 28 15 35 13 27 -9z m33 -16 c-6
-11 -15 -18 -20 -15 -13 8 0 35 16 35 12 0 12 -4 4 -20z m30 -5 c-7 -8 -10
-21 -7 -29 4 -10 1 -13 -8 -9 -8 3 -12 10 -8 17 10 19 25 36 30 36 3 0 0 -7
-7 -15z m-1370 -35 c0 -5 -5 -10 -11 -10 -5 0 -7 5 -4 10 3 6 8 10 11 10 2 0
4 -4 4 -10z m1288 -17 c-6 -7 -12 -13 -13 -13 -2 0 -5 6 -8 13 -3 7 3 13 14
13 13 0 15 -3 7 -13z m122 13 c0 -2 -7 -7 -16 -10 -8 -3 -12 -2 -9 4 6 10 25
14 25 6z m-1445 -56 c3 -5 1 -10 -4 -10 -6 0 -11 5 -11 10 0 6 2 10 4 10 3 0
8 -4 11 -10z m1015 -15 c-7 -9 -15 -13 -19 -10 -3 3 1 10 9 15 21 14 24 12 10
-5z m175 5 c3 -6 -1 -7 -9 -4 -18 7 -21 14 -7 14 6 0 13 -4 16 -10z m-145 -10
c0 -5 -5 -10 -11 -10 -5 0 -7 5 -4 10 3 6 8 10 11 10 2 0 4 -4 4 -10z m120
-13 c0 -2 -10 -12 -22 -23 l-23 -19 19 23 c18 21 26 27 26 19z m-1200 -87 c0
-5 -5 -10 -11 -10 -5 0 -7 5 -4 10 3 6 8 10 11 10 2 0 4 -4 4 -10z m20 -170
c0 -5 -4 -10 -9 -10 -6 0 -13 5 -16 10 -3 6 1 10 9 10 9 0 16 -4 16 -10z m174
-145 c-5 -20 -3 -24 10 -19 12 5 16 0 16 -21 0 -23 2 -26 15 -15 11 9 15 10
15 1 0 -8 8 -10 23 -6 16 5 19 4 12 -4 -13 -13 -77 -22 -69 -10 3 5 -4 9 -15
9 -12 0 -21 6 -21 14 0 9 -7 13 -20 11 -27 -5 -25 1 8 35 33 36 34 36 26 5z
m-294 -37 c0 -11 -12 -10 -30 2 -12 7 -10 9 8 7 12 0 22 -5 22 -9z m-176 -183
c-4 -8 -11 -15 -16 -15 -6 0 -5 6 2 15 7 8 14 15 16 15 2 0 1 -7 -2 -15z m-34
-19 c0 -2 -7 -6 -15 -10 -8 -3 -15 -1 -15 4 0 6 7 10 15 10 8 0 15 -2 15 -4z
m-80 -16 c0 -5 -7 -10 -16 -10 -8 0 -12 5 -9 10 3 6 10 10 16 10 5 0 9 -4 9
-10z m10 -70 c0 -4 -7 -13 -15 -20 -8 -7 -15 -9 -15 -4 0 5 -20 8 -45 7 -25 0
-45 3 -45 7 0 12 37 23 50 15 5 -3 17 -2 27 3 18 10 43 5 43 -8z m-290 -44 c0
-3 -4 -8 -10 -11 -5 -3 -10 -1 -10 4 0 6 5 11 10 11 6 0 10 -2 10 -4z m-90
-46 c0 -5 -2 -10 -4 -10 -3 0 -8 5 -11 10 -3 6 -1 10 4 10 6 0 11 -4 11 -10z
m865 -10 c3 -5 -1 -10 -9 -10 -9 0 -16 5 -16 10 0 6 4 10 9 10 6 0 13 -4 16
-10z m-885 -36 c0 -8 -4 -12 -10 -9 -5 3 -10 10 -10 16 0 5 5 9 10 9 6 0 10
-7 10 -16z m1660 -68 c0 -9 -28 -23 -75 -37 -45 -14 -69 -26 -62 -31 8 -5 3
-8 -12 -8 -20 0 -22 2 -11 15 17 20 97 57 127 59 13 0 23 4 23 9 0 4 2 7 5 7
3 0 5 -6 5 -14z m151 -21 c6 -4 9 -27 6 -56 -3 -27 -1 -49 4 -49 5 0 9 -5 9
-11 0 -5 -4 -7 -10 -4 -5 3 -10 -1 -10 -9 0 -33 -84 -52 -115 -26 -8 7 -18 9
-24 6 -5 -4 -33 -11 -62 -16 -59 -11 -71 -23 -62 -60 8 -34 46 -74 118 -123
84 -56 91 -71 55 -107 -14 -14 -29 -19 -46 -16 -43 8 -91 -22 -99 -60 -3 -18
-11 -36 -17 -40 -7 -4 -8 -3 -4 4 4 7 1 12 -8 12 -18 0 -21 -16 -6 -25 15 -9
12 -25 -5 -25 -7 0 -18 7 -23 15 -7 13 -14 14 -35 6 -35 -13 -34 -20 1 -18 24
2 27 -1 27 -28 0 -28 -2 -30 -32 -27 -18 2 -41 -2 -53 -8 -11 -6 -20 -9 -20
-6 0 2 -3 11 -6 20 -4 11 -1 16 10 16 9 0 16 5 16 10 0 13 -6 13 -46 -2 -24
-8 -33 -17 -31 -31 1 -11 -4 -22 -10 -24 -7 -3 -13 2 -13 11 0 19 1 19 -39 5
-20 -7 -30 -16 -27 -25 7 -18 -14 -30 -24 -14 -6 9 -15 8 -41 -5 -45 -23 -44
-21 -25 -50 25 -37 8 -55 -19 -20 -20 24 -26 26 -51 18 -22 -7 -28 -15 -26
-31 4 -24 -8 -28 -25 -11 -7 7 -26 3 -64 -16 -69 -35 -68 -33 -40 -54 28 -22
21 -40 -13 -34 -13 3 -27 0 -30 -6 -10 -16 -26 -13 -26 4 0 8 5 15 10 15 6 0
10 5 10 10 0 6 -11 3 -25 -6 -28 -18 -44 -12 -26 10 9 11 7 15 -11 20 -23 6
-23 7 9 34 l33 28 -56 55 c-69 67 -81 87 -62 104 7 8 89 49 183 93 l170 80 -3
36 c-5 58 34 100 142 153 50 24 137 70 193 102 112 65 157 83 209 83 19 0 34
3 34 8 0 4 10 7 23 6 16 -1 23 5 25 21 2 15 13 25 28 29 18 5 22 10 15 17 -6
6 -11 14 -11 18 0 9 34 4 51 -6z m-171 -28 c0 -7 -12 -13 -27 -15 l-28 -1 25
14 c31 18 30 18 30 2z m-1836 -103 c3 -8 2 -12 -4 -9 -6 3 -10 10 -10 16 0 14
7 11 14 -7z m-149 -24 c3 -5 -1 -10 -10 -10 -9 0 -13 5 -10 10 3 6 8 10 10 10
2 0 7 -4 10 -10z m-165 -110 c0 -5 -2 -10 -4 -10 -3 0 -8 5 -11 10 -3 6 -1 10
4 10 6 0 11 -4 11 -10z m2354 -390 c11 -8 30 -24 42 -36 12 -12 29 -24 38 -27
9 -4 16 -11 16 -16 0 -18 -18 -21 -34 -6 -8 9 -18 15 -21 14 -3 -1 -24 2 -48
5 -49 8 -117 49 -117 71 0 21 96 16 124 -5z m-2401 -47 c-7 -2 -19 -2 -25 0
-7 3 -2 5 12 5 14 0 19 -2 13 -5z m2322 -151 c-3 -3 -11 0 -18 7 -9 10 -8 11
6 5 10 -3 15 -9 12 -12z m-2394 -101 c-7 -12 -16 -21 -22 -21 -6 0 -3 7 6 16
9 9 13 24 10 33 -5 12 -3 13 5 5 9 -9 9 -17 1 -33z m-1 -64 c0 -5 -4 -5 -10
-2 -5 3 -10 14 -10 23 0 15 2 15 10 2 5 -8 10 -19 10 -23z m-145 -167 c3 -5 1
-10 -4 -10 -6 0 -11 5 -11 10 0 6 2 10 4 10 3 0 8 -4 11 -10z m35 -1 c0 -5 5
-7 12 -3 7 4 8 3 4 -4 -4 -6 -13 -9 -21 -5 -17 6 -20 23 -5 23 6 0 10 -5 10
-11z m80 -41 c0 -20 -18 -5 -23 19 -5 26 -4 26 9 8 8 -10 14 -22 14 -27z
m-140 -33 c0 -8 -4 -15 -10 -15 -5 0 -10 7 -10 15 0 8 5 15 10 15 6 0 10 -7
10 -15z m-66 -7 c-3 -4 -9 -8 -15 -8 -5 0 -9 4 -9 8 0 5 7 9 15 9 8 0 12 -4 9
-9z m96 -68 c0 -5 -4 -10 -10 -10 -5 0 -10 5 -10 10 0 6 5 10 10 10 6 0 10 -4
10 -10z m-150 -4 c0 -3 -4 -8 -10 -11 -5 -3 -10 -1 -10 4 0 6 5 11 10 11 6 0
10 -2 10 -4z m180 -86 c0 -5 -4 -10 -10 -10 -5 0 -10 5 -10 10 0 6 5 10 10 10
6 0 10 -4 10 -10z m-36 -46 c4 -10 1 -14 -6 -12 -15 5 -23 28 -10 28 5 0 13
-7 16 -16z m96 -94 c0 -5 -5 -10 -11 -10 -5 0 -7 5 -4 10 3 6 8 10 11 10 2 0
4 -4 4 -10z m-153 -102 c-3 -8 -6 -5 -6 6 -1 11 2 17 5 13 3 -3 4 -12 1 -19z
m34 -105 c-9 -16 -10 -14 -11 12 0 21 3 26 11 18 8 -8 8 -16 0 -30z m59 7 c0
-5 -5 -10 -11 -10 -5 0 -7 5 -4 10 3 6 8 10 11 10 2 0 4 -4 4 -10z m-570 -60
c0 -5 -4 -10 -10 -10 -5 0 -10 5 -10 10 0 6 5 10 10 10 6 0 10 -4 10 -10z
m252 -62 c-7 -7 -12 -8 -12 -2 0 14 12 26 19 19 2 -3 -1 -11 -7 -17z m-102
-39 c0 -6 -4 -7 -10 -4 -5 3 -10 11 -10 16 0 6 5 7 10 4 6 -3 10 -11 10 -16z
m-110 -23 c0 -3 -4 -8 -10 -11 -5 -3 -10 -1 -10 4 0 6 5 11 10 11 6 0 10 -2
10 -4z m-60 -36 c0 -5 -5 -10 -11 -10 -5 0 -7 5 -4 10 3 6 8 10 11 10 2 0 4
-4 4 -10z m207 -32 c-3 -8 -6 -5 -6 6 -1 11 2 17 5 13 3 -3 4 -12 1 -19z m223
-138 c0 -5 -5 -10 -11 -10 -5 0 -7 5 -4 10 3 6 8 10 11 10 2 0 4 -4 4 -10z
m-45 -289 c3 -5 1 -12 -4 -15 -5 -3 -11 1 -15 9 -6 16 9 21 19 6z m-70 -51 c3
-5 -1 -10 -9 -10 -9 0 -16 5 -16 10 0 6 4 10 9 10 6 0 13 -4 16 -10z m5 -56
c0 -8 -5 -12 -10 -9 -6 4 -8 11 -5 16 9 14 15 11 15 -7z m59 -28 c15 -26 8
-46 -15 -46 -17 0 -17 5 -4 31 8 15 7 19 -4 19 -8 0 -18 5 -21 10 -3 6 2 10
13 10 10 0 24 -11 31 -24z"/>
<path d="M3932 2847 c-24 -26 -28 -37 -11 -37 11 0 48 40 49 53 0 14 -17 7
-38 -16z"/>
<path d="M3855 2710 c-18 -8 -17 -9 8 -9 15 -1 27 -5 27 -11 0 -5 4 -10 9 -10
5 0 7 9 4 20 -6 21 -16 24 -48 10z"/>
<path d="M3908 2653 c-10 -2 -18 -9 -18 -14 0 -6 10 -5 23 2 37 20 36 23 -5
12z"/>
<path d="M3836 2622 c-2 -4 4 -8 14 -8 10 0 16 4 14 8 -3 4 -9 8 -14 8 -5 0
-11 -4 -14 -8z"/>
<path d="M3588 2596 c-34 -12 -34 -16 -4 -45 20 -19 28 -21 45 -12 25 14 26
20 3 47 -14 17 -21 19 -44 10z"/>
<path d="M3507 2543 c-4 -3 -7 -11 -7 -17 0 -6 5 -5 12 2 6 6 9 14 7 17 -3 3
-9 2 -12 -2z"/>
<path d="M3398 2507 c-35 -13 -35 -27 -3 -57 22 -21 27 -22 50 -10 30 16 31
18 2 51 -19 23 -25 25 -49 16z"/>
<path d="M3635 2500 c3 -5 13 -10 21 -10 8 0 14 5 14 10 0 6 -9 10 -21 10 -11
0 -17 -4 -14 -10z"/>
<path d="M3726 2474 c-21 -12 -25 -19 -17 -27 13 -13 61 8 69 31 5 16 -17 15
-52 -4z"/>
<path d="M3615 2460 c-3 -5 -1 -10 4 -10 6 0 11 5 11 10 0 6 -2 10 -4 10 -3 0
-8 -4 -11 -10z"/>
<path d="M3647 2434 c-26 -14 -37 -34 -17 -34 16 0 60 23 60 31 0 16 -16 17
-43 3z"/>
<path d="M3450 2410 c-9 -6 -10 -10 -3 -10 6 0 15 5 18 10 8 12 4 12 -15 0z"/>
<path d="M3552 2381 c-31 -16 -34 -31 -6 -31 18 0 59 36 48 42 -5 4 -24 -2
-42 -11z"/>
<path d="M3382 2372 c-21 -16 -22 -20 -8 -31 13 -11 22 -11 46 -1 29 12 30 14
14 31 -21 23 -23 23 -52 1z"/>
<path d="M3453 2328 c-13 -6 -23 -15 -23 -20 0 -12 11 -9 50 12 26 14 30 19
15 19 -11 0 -30 -5 -42 -11z"/>
<path d="M2662 5998 c6 -16 -11 -33 -38 -42 -11 -3 -34 -20 -49 -36 -26 -27
-30 -40 -33 -103 -2 -40 -8 -76 -13 -81 -5 -6 -9 -22 -9 -36 0 -14 -6 -32 -12
-39 -11 -10 -9 -15 6 -27 11 -8 26 -14 34 -14 7 0 10 -4 7 -10 -3 -5 -1 -10 6
-10 6 0 9 -8 6 -19 -2 -11 3 -25 13 -34 10 -8 20 -21 24 -28 5 -11 7 -11 12
-1 8 17 52 15 71 -3 17 -18 51 -11 71 14 7 9 20 40 28 69 18 59 12 167 -12
234 -12 35 -11 39 9 53 12 8 16 15 9 15 -6 0 -12 7 -12 15 0 8 5 15 10 15 6 0
10 -4 10 -10 0 -5 5 -10 11 -10 8 0 7 5 -1 15 -7 9 -18 14 -24 12 -7 -3 -17 6
-23 19 -6 13 -7 22 -2 18 5 -3 9 1 9 9 0 17 -34 29 -48 15 -5 -5 -19 -5 -36 2
-21 8 -27 7 -24 -2z"/>
<path d="M5725 6000 c4 -6 11 -8 16 -5 14 9 11 15 -7 15 -8 0 -12 -5 -9 -10z"/>
<path d="M5790 5999 c0 -5 5 -7 10 -4 6 3 10 8 10 11 0 2 -4 4 -10 4 -5 0 -10
-5 -10 -11z"/>
<path d="M2962 5937 c-12 -13 -19 -26 -16 -30 4 -3 -5 -4 -19 -1 -18 3 -29 -1
-36 -14 -12 -22 2 -47 22 -39 19 7 31 -31 15 -50 -8 -10 -5 -13 11 -13 12 0
19 5 16 10 -8 13 16 13 35 -1 13 -9 13 -10 -2 -6 -9 3 -19 -1 -22 -9 -8 -22
-8 -22 12 -20 11 1 16 -5 14 -17 -2 -10 6 -27 18 -37 12 -11 19 -24 15 -29 -3
-6 -1 -11 4 -11 6 0 11 -4 11 -10 0 -5 -7 -10 -15 -10 -8 0 -15 -7 -15 -15 0
-9 -12 -18 -30 -22 -37 -7 -46 -19 -30 -38 9 -11 9 -15 1 -15 -6 0 -10 -3 -10
-7 3 -20 -2 -24 -15 -14 -12 10 -21 7 -45 -14 -16 -15 -27 -33 -25 -40 3 -7
-10 -23 -28 -36 -18 -13 -34 -26 -36 -30 -7 -15 -118 25 -148 53 -42 39 -54
19 -15 -24 16 -18 46 -52 66 -75 49 -57 106 -78 187 -69 34 3 67 11 72 16 6 6
19 10 29 10 12 0 17 5 14 13 -4 10 2 13 21 9 20 -4 24 -2 19 11 -3 9 -2 17 3
19 5 2 10 17 12 35 4 33 53 89 75 85 10 -2 11 12 4 61 0 4 -6 7 -12 7 -5 0 -7
-4 -4 -10 3 -5 -3 -10 -14 -10 -11 0 -23 5 -26 10 -11 18 14 38 40 32 27 -5
35 12 10 22 -13 4 -12 9 3 36 9 16 22 30 27 30 10 0 13 9 16 70 1 16 8 31 16
34 17 7 17 36 -1 36 -8 0 -27 13 -43 29 -22 22 -33 27 -46 20 -12 -7 -15 -6
-12 3 7 19 -46 42 -57 25 -4 -6 -8 -7 -8 -2 0 6 -7 1 -15 -9 -13 -17 -15 -18
-15 -3 0 9 -4 17 -10 17 -5 0 -10 8 -10 18 0 14 2 15 10 2 8 -12 10 -9 10 13
0 33 -1 33 -28 4z"/>
<path d="M2861 5933 c0 -4 4 -17 9 -28 8 -19 9 -19 9 2 1 12 -3 25 -9 28 -5 3
-10 3 -9 -2z"/>
<path d="M2830 5920 c0 -5 5 -10 10 -10 6 0 10 5 10 10 0 6 -4 10 -10 10 -5 0
-10 -4 -10 -10z"/>
<path d="M3121 5913 c7 -12 15 -20 18 -17 3 2 -3 12 -13 22 -17 16 -18 16 -5
-5z"/>
<path d="M2815 5890 c-3 -5 -1 -10 4 -10 6 0 11 5 11 10 0 6 -2 10 -4 10 -3 0
-8 -4 -11 -10z"/>
<path d="M3240 5841 c0 -5 7 -12 16 -15 14 -5 15 -4 4 9 -14 17 -20 19 -20 6z"/>
<path d="M4330 5791 c-8 -6 -17 -8 -21 -5 -4 2 -13 -4 -20 -13 -10 -12 -10
-14 -1 -9 7 4 12 2 12 -7 0 -21 47 -60 61 -51 8 5 11 3 7 -7 -8 -20 55 -17 76
3 13 14 12 18 -11 38 -14 12 -33 20 -44 17 -10 -3 -19 -1 -19 4 0 5 -8 9 -17
9 -15 0 -14 2 3 15 14 11 15 14 4 15 -8 0 -22 -4 -30 -9z m90 -65 c0 -3 -4 -8
-10 -11 -5 -3 -10 -1 -10 4 0 6 5 11 10 11 6 0 10 -2 10 -4z"/>
<path d="M4397 5784 c6 -16 19 -18 27 -5 3 5 -3 11 -13 14 -14 3 -18 1 -14 -9z"/>
<path d="M2920 5772 c0 -5 7 -9 15 -9 8 0 15 4 15 9 0 4 -7 8 -15 8 -8 0 -15
-4 -15 -8z"/>
<path d="M6370 5759 c0 -11 90 -52 98 -44 3 2 -4 8 -14 11 -10 4 -26 12 -34
19 -22 18 -50 26 -50 14z"/>
<path d="M4463 5683 c-18 -7 -16 -20 3 -27 10 -4 13 -2 8 6 -5 7 -2 9 9 5 11
-4 14 -2 10 9 -5 15 -10 16 -30 7z"/>
<path d="M3770 5639 c0 -6 -9 -9 -20 -6 -18 5 -19 3 -6 -28 l14 -32 -42 3
c-24 1 -49 -2 -57 -7 -11 -7 -12 -9 0 -9 10 0 11 -3 2 -13 -16 -20 -2 -28 34
-21 26 5 35 0 63 -30 18 -20 41 -36 51 -36 29 0 161 -141 161 -172 0 -19 55
-77 135 -143 76 -63 79 -64 71 -19 -7 34 -6 36 8 25 27 -23 20 15 -10 55 -22
29 -24 33 -8 28 15 -5 14 -3 -4 10 -17 14 -20 21 -12 36 14 26 13 31 -6 28
-10 -2 -19 3 -22 11 -3 8 0 11 7 7 6 -4 11 -1 11 8 0 18 -16 21 -25 6 -3 -5
-13 -10 -21 -10 -10 0 -12 5 -7 13 4 6 8 24 9 40 1 22 -1 25 -12 16 -10 -8
-22 -4 -49 16 -19 15 -35 31 -35 36 0 5 -7 6 -15 3 -18 -7 -20 17 -3 34 9 9 8
12 -5 12 -11 0 -17 -8 -17 -21 0 -18 -2 -19 -15 -9 -8 7 -15 20 -15 29 0 14
-2 14 -10 1 -8 -13 -10 -12 -10 3 0 10 -4 15 -10 12 -5 -3 -10 2 -10 13 0 23
25 47 63 61 15 6 27 15 27 20 0 15 -38 33 -44 22 -3 -5 -15 -7 -25 -4 -10 3
-22 0 -25 -6 -11 -16 -56 -13 -62 4 -5 12 -10 13 -20 4 -11 -9 -14 -8 -14 5 0
9 -4 16 -10 16 -5 0 -10 -5 -10 -11z m274 -255 c16 -6 12 -24 -5 -24 -6 0 -8
4 -5 9 4 5 0 12 -6 14 -7 3 -10 6 -6 6 3 1 13 -2 22 -5z"/>
<path d="M5575 5600 c3 -5 8 -10 11 -10 2 0 4 5 4 10 0 6 -5 10 -11 10 -5 0
-7 -4 -4 -10z"/>
<path d="M7263 5593 c9 -2 23 -2 30 0 6 3 -1 5 -18 5 -16 0 -22 -2 -12 -5z"/>
<path d="M7198 5583 c7 -3 16 -2 19 1 4 3 -2 6 -13 5 -11 0 -14 -3 -6 -6z"/>
<path d="M5600 5560 c-9 -6 -10 -10 -3 -10 6 0 15 5 18 10 8 12 4 12 -15 0z"/>
<path d="M6998 5553 c7 -3 16 -2 19 1 4 3 -2 6 -13 5 -11 0 -14 -3 -6 -6z"/>
<path d="M1926 5404 c-3 -8 -10 -13 -15 -9 -6 3 -8 -15 -5 -47 2 -29 8 -54 14
-56 13 -5 53 -72 47 -79 -3 -3 -17 -6 -31 -7 -14 0 -26 -5 -26 -9 0 -7 -20 -4
-58 11 -7 2 -12 -1 -10 -9 6 -24 72 -99 88 -99 6 0 10 -7 10 -16 0 -8 -4 -13
-8 -10 -4 2 -14 0 -22 -6 -12 -8 -12 -9 3 -4 9 3 17 1 17 -5 0 -6 4 -8 10 -4
5 3 21 3 35 -1 20 -5 23 -9 14 -20 -6 -8 -19 -14 -28 -15 -10 0 -7 -4 8 -10
14 -5 31 -7 38 -5 7 3 13 1 13 -4 0 -5 7 -16 16 -24 14 -15 13 -17 -8 -26 -22
-10 -21 -10 5 -5 20 4 27 1 27 -10 0 -9 9 -15 21 -15 11 0 35 -15 53 -32 34
-34 84 -73 95 -73 3 -1 20 -8 37 -17 28 -15 33 -16 53 -1 20 13 21 21 15 57
-4 22 -8 58 -9 79 -1 36 -33 76 -49 60 -3 -3 -6 1 -6 11 0 10 5 14 12 10 7 -4
8 -3 4 4 -4 7 -15 12 -24 12 -11 0 -13 3 -5 8 16 10 11 43 -9 66 -10 11 -18
27 -18 36 0 8 -10 20 -22 25 -13 6 -24 20 -26 33 -2 12 -8 22 -13 22 -5 0 -8
3 -8 8 1 4 1 20 0 36 -1 23 -5 27 -21 23 -12 -3 -24 1 -30 11 -8 15 -9 14 -10
-5 0 -13 5 -23 11 -23 8 0 10 -16 5 -50 -6 -41 -4 -50 9 -50 8 0 15 -4 15 -9
0 -9 -29 -36 -33 -30 -21 37 -25 50 -20 68 3 11 9 21 14 21 5 0 9 4 9 9 0 4
-11 6 -25 3 -18 -3 -25 0 -25 11 0 8 -7 18 -15 21 -12 4 -14 10 -5 25 16 30
12 43 -10 36 -15 -5 -18 -3 -14 9 5 12 0 16 -19 16 -14 0 -31 8 -37 18 -11 16
-11 16 -6 0 3 -10 1 -18 -4 -18 -9 0 -15 29 -11 58 3 17 -6 15 -13 -4z m224
-177 c0 -26 -9 -39 -20 -32 -10 6 0 55 11 55 5 0 9 -10 9 -23z m-146 -52 c-6
-16 -34 -21 -34 -7 0 13 11 22 26 22 8 0 11 -6 8 -15z m-4 -39 c0 -3 -4 -8
-10 -11 -5 -3 -10 -1 -10 4 0 6 5 11 10 11 6 0 10 -2 10 -4z m5 -116 c-3 -5
-11 -10 -16 -10 -6 0 -7 5 -4 10 3 6 11 10 16 10 6 0 7 -4 4 -10z"/>
<path d="M2052 5400 c0 -14 2 -19 5 -12 2 6 2 18 0 25 -3 6 -5 1 -5 -13z"/>
<path d="M4640 5400 c0 -5 5 -10 11 -10 5 0 7 5 4 10 -3 6 -8 10 -11 10 -2 0
-4 -4 -4 -10z"/>
<path d="M2066 5365 c-3 -8 -1 -15 4 -15 6 0 10 7 10 15 0 8 -2 15 -4 15 -2 0
-6 -7 -10 -15z"/>
<path d="M4176 5350 c4 -14 12 -38 20 -55 l13 -30 -6 30 c-3 17 -12 41 -20 55
l-14 25 7 -25z"/>
<path d="M4626 5348 c11 -13 28 -39 39 -58 l19 -35 -37 33 c-47 40 -60 42 -23
3 18 -19 27 -37 24 -54 -4 -31 18 -57 48 -57 23 0 24 2 18 63 -7 73 -10 80
-35 74 -10 -3 -18 -2 -17 2 4 12 -27 51 -41 51 -11 0 -10 -5 5 -22z"/>
<path d="M1825 5230 c-3 -5 1 -10 9 -10 9 0 16 5 16 10 0 6 -4 10 -9 10 -6 0
-13 -4 -16 -10z"/>
<path d="M4211 5224 c0 -11 3 -14 6 -6 3 7 2 16 -1 19 -3 4 -6 -2 -5 -13z"/>
<path d="M1865 5220 c3 -5 12 -10 20 -10 8 0 17 5 20 10 4 6 -5 10 -20 10 -15
0 -24 -4 -20 -10z"/>
<path d="M5390 5189 c0 -5 5 -7 10 -4 6 3 10 8 10 11 0 2 -4 4 -10 4 -5 0 -10
-5 -10 -11z"/>
<path d="M4645 5150 c3 -5 8 -10 11 -10 2 0 4 5 4 10 0 6 -5 10 -11 10 -5 0
-7 -4 -4 -10z"/>
<path d="M4680 5119 c7 -11 14 -19 16 -16 7 7 -7 37 -17 37 -6 0 -5 -9 1 -21z"/>
<path d="M5416 5123 c-6 -14 -5 -15 5 -6 7 7 10 15 7 18 -3 3 -9 -2 -12 -12z"/>
<path d="M5395 5079 c-4 -6 -5 -12 -2 -15 2 -3 7 2 10 11 7 17 1 20 -8 4z"/>
<path d="M5411 5024 c0 -11 3 -14 6 -6 3 7 2 16 -1 19 -3 4 -6 -2 -5 -13z"/>
<path d="M4600 5000 c0 -5 5 -10 11 -10 5 0 7 5 4 10 -3 6 -8 10 -11 10 -2 0
-4 -4 -4 -10z"/>
<path d="M4641 4924 c0 -11 3 -14 6 -6 3 7 2 16 -1 19 -3 4 -6 -2 -5 -13z"/>
<path d="M5105 4840 c-3 -5 0 -10 7 -10 10 0 10 -2 0 -9 -8 -5 -12 -17 -10
-27 3 -16 7 -14 21 12 15 30 14 44 -4 44 -4 0 -11 -4 -14 -10z"/>
<path d="M5050 4831 c0 -6 9 -9 19 -8 11 0 17 5 15 9 -7 11 -34 10 -34 -1z"/>
<path d="M5225 4830 c-3 -5 -1 -10 4 -10 6 0 11 5 11 10 0 6 -2 10 -4 10 -3 0
-8 -4 -11 -10z"/>
<path d="M5210 4789 c0 -5 5 -7 10 -4 6 3 10 8 10 11 0 2 -4 4 -10 4 -5 0 -10
-5 -10 -11z"/>
<path d="M4895 4770 c-3 -5 -2 -10 4 -10 5 0 13 5 16 10 3 6 2 10 -4 10 -5 0
-13 -4 -16 -10z"/>
<path d="M4935 4760 c-19 -8 -19 -9 3 -9 12 -1 22 4 22 9 0 6 -1 10 -2 9 -2 0
-12 -4 -23 -9z"/>
<path d="M5060 4750 c0 -5 5 -10 11 -10 5 0 7 5 4 10 -3 6 -8 10 -11 10 -2 0
-4 -4 -4 -10z"/>
<path d="M5133 4745 c-9 -24 6 -31 25 -11 16 16 16 17 -2 10 -13 -5 -17 -4
-12 4 4 7 5 12 1 12 -3 0 -8 -7 -12 -15z"/>
<path d="M5030 4729 c0 -13 14 -17 35 -9 17 6 16 7 -8 12 -15 3 -27 2 -27 -3z"/>
<path d="M5167 4711 c-3 -14 -1 -18 9 -14 8 3 14 -1 14 -8 0 -11 3 -11 10 1 5
8 10 20 10 25 0 6 -5 3 -10 -5 -8 -13 -10 -12 -10 3 0 23 -16 22 -23 -2z"/>
<path d="M4986 4695 c-3 -8 -13 -15 -23 -15 -15 0 -15 -2 -4 -9 9 -6 22 -6 34
1 18 9 19 7 15 -16 -6 -28 1 -33 20 -14 15 15 16 32 2 23 -5 -3 -10 0 -10 9 0
8 6 17 13 20 6 3 1 3 -12 0 -16 -4 -21 -3 -17 5 4 6 3 11 -2 11 -6 0 -12 -7
-16 -15z"/>
<path d="M5056 4695 c-3 -9 0 -15 10 -15 8 0 13 4 10 9 -4 5 0 12 6 14 8 4 7
6 -3 6 -9 1 -19 -6 -23 -14z"/>
<path d="M5107 4690 c-3 -11 -1 -20 4 -20 5 0 9 9 9 20 0 11 -2 20 -4 20 -2 0
-6 -9 -9 -20z"/>
<path d="M3590 4680 c0 -5 5 -10 10 -10 6 0 10 5 10 10 0 6 -4 10 -10 10 -5 0
-10 -4 -10 -10z"/>
<path d="M1530 4602 c-28 -35 -25 -46 15 -65 42 -20 55 -16 77 22 14 26 14 32
2 49 -20 29 -70 26 -94 -6z"/>
<path d="M3680 4615 c0 -8 -8 -15 -17 -15 -15 0 -14 -2 3 -15 25 -19 38 -19
30 0 -3 8 -1 15 3 15 5 0 11 -5 13 -12 3 -7 10 -8 17 -4 9 6 8 13 -8 27 -24
23 -41 24 -41 4z"/>
<path d="M4871 4619 c-1 -9 -12 -20 -26 -23 -31 -8 -24 -28 15 -43 23 -9 30
-8 34 3 3 8 1 14 -5 14 -6 0 -9 6 -6 13 2 6 1 21 -4 32 -6 15 -8 16 -8 4z"/>
<path d="M4940 4600 c0 -5 5 -10 11 -10 5 0 7 5 4 10 -3 6 -8 10 -11 10 -2 0
-4 -4 -4 -10z"/>
<path d="M3800 4550 c-8 -5 -11 -12 -8 -16 4 -3 14 1 23 10 18 17 9 21 -15 6z"/>
<path d="M4000 4551 c0 -5 5 -13 10 -16 6 -3 10 -2 10 4 0 5 -4 13 -10 16 -5
3 -10 2 -10 -4z"/>
<path d="M3950 4540 c-13 -8 -12 -10 3 -10 9 0 17 5 17 10 0 12 -1 12 -20 0z"/>
<path d="M4330 4530 c0 -5 5 -10 11 -10 5 0 7 5 4 10 -3 6 -8 10 -11 10 -2 0
-4 -4 -4 -10z"/>
<path d="M2993 4523 c-7 -3 -13 -13 -13 -24 0 -14 7 -19 25 -19 18 0 25 5 25
19 0 20 -17 31 -37 24z"/>
<path d="M4787 4502 c-27 -28 -27 -42 1 -42 9 0 12 3 9 7 -4 3 -1 13 5 21 11
12 20 42 14 42 -1 0 -14 -13 -29 -28z"/>
<path d="M4017 4513 c-12 -12 -7 -33 8 -33 17 0 19 9 7 28 -5 7 -11 9 -15 5z"/>
<path d="M4195 4449 c-11 -16 -1 -19 13 -3 7 8 8 14 3 14 -5 0 -13 -5 -16 -11z"/>
<path d="M4250 4389 c0 -5 5 -7 10 -4 6 3 10 8 10 11 0 2 -4 4 -10 4 -5 0 -10
-5 -10 -11z"/>
<path d="M3125 4270 c-3 -5 -2 -10 4 -10 5 0 13 5 16 10 3 6 2 10 -4 10 -5 0
-13 -4 -16 -10z"/>
<path d="M4586 4271 c-3 -5 1 -12 10 -15 20 -8 29 -1 19 13 -8 13 -22 14 -29
2z"/>
<path d="M4357 4194 c3 -8 12 -13 20 -10 8 3 17 6 19 6 2 0 4 5 4 10 0 6 -11
10 -25 10 -18 0 -23 -4 -18 -16z"/>
<path d="M4247 4186 c-4 -10 -1 -13 8 -9 8 3 12 9 9 14 -7 12 -11 11 -17 -5z"/>
<path d="M3210 4009 c0 -5 5 -7 10 -4 6 3 10 8 10 11 0 2 -4 4 -10 4 -5 0 -10
-5 -10 -11z"/>
<path d="M2620 3921 c0 -5 5 -13 10 -16 6 -3 10 -2 10 4 0 5 -4 13 -10 16 -5
3 -10 2 -10 -4z"/>
<path d="M3123 3803 c-13 -5 -19 -33 -7 -33 3 0 14 5 25 10 34 19 19 38 -18
23z"/>
<path d="M3115 3700 c3 -5 8 -10 11 -10 2 0 4 5 4 10 0 6 -5 10 -11 10 -5 0
-7 -4 -4 -10z"/>
<path d="M1746 3685 c4 -8 8 -15 10 -15 2 0 4 7 4 15 0 8 -4 15 -10 15 -5 0
-7 -7 -4 -15z"/>
<path d="M3000 3620 c0 -5 5 -10 11 -10 5 0 7 5 4 10 -3 6 -8 10 -11 10 -2 0
-4 -4 -4 -10z"/>
<path d="M3025 3550 c-3 -5 -1 -10 4 -10 6 0 11 5 11 10 0 6 -2 10 -4 10 -3 0
-8 -4 -11 -10z"/>
<path d="M2970 3517 c0 -9 0 -20 -1 -24 0 -4 4 -9 10 -11 6 -2 10 5 8 17 -4
26 -17 40 -17 18z"/>
<path d="M2288 3453 c-22 -5 -23 -27 -2 -47 20 -20 34 -12 34 19 0 27 -7 33
-32 28z"/>
<path d="M2540 3385 c0 -8 -9 -15 -21 -15 -11 0 -17 -5 -14 -10 4 -6 11 -7 17
-4 6 4 14 0 19 -7 7 -11 9 -10 9 4 0 14 5 17 21 12 18 -6 19 -5 7 14 -15 24
-38 28 -38 6z"/>
<path d="M2601 3374 c0 -11 3 -14 6 -6 3 7 2 16 -1 19 -3 4 -6 -2 -5 -13z"/>
<path d="M2410 3335 c0 -21 -31 -55 -44 -48 -6 3 -8 3 -4 -2 4 -4 3 -14 -3
-21 -7 -8 -7 -14 1 -19 5 -3 15 6 20 20 5 14 14 23 20 20 5 -3 10 -1 10 5 0 6
6 10 13 9 17 -3 47 11 47 23 0 5 -9 6 -20 3 -14 -5 -20 -2 -20 9 0 9 -4 16
-10 16 -5 0 -10 -7 -10 -15z"/>
<path d="M2310 3306 c0 -2 7 -7 16 -10 8 -3 12 -2 9 4 -6 10 -25 14 -25 6z"/>
<path d="M2308 3263 c7 -3 16 -2 19 1 4 3 -2 6 -13 5 -11 0 -14 -3 -6 -6z"/>
<path d="M2270 3230 c0 -5 5 -10 10 -10 6 0 10 5 10 10 0 6 -4 10 -10 10 -5 0
-10 -4 -10 -10z"/>
<path d="M2332 3225 c-11 -12 -10 -15 3 -15 8 0 15 7 15 15 0 18 -2 18 -18 0z"/>
<path d="M2295 3179 c-4 -6 -5 -12 -2 -15 2 -3 7 2 10 11 7 17 1 20 -8 4z"/>
<path d="M2175 3145 c-28 -22 -28 -24 -8 -25 12 0 24 -6 26 -12 4 -10 6 -10 6
0 1 6 7 12 15 12 8 0 16 7 20 15 3 9 0 15 -8 15 -8 0 -16 4 -18 10 -1 5 -16
-1 -33 -15z"/>
<path d="M2230 3110 c0 -5 4 -10 9 -10 6 0 13 5 16 10 3 6 -1 10 -9 10 -9 0
-16 -4 -16 -10z"/>
<path d="M2250 3019 c0 -5 -4 -7 -10 -4 -5 3 -10 1 -10 -4 0 -13 3 -13 24 -5
18 7 22 24 6 24 -5 0 -10 -5 -10 -11z"/>
<path d="M2057 2983 c-2 -4 -1 -17 3 -27 6 -19 7 -19 14 -1 7 19 -8 44 -17 28z"/>
<path d="M1920 2750 c0 -5 5 -10 11 -10 5 0 7 5 4 10 -3 6 -8 10 -11 10 -2 0
-4 -4 -4 -10z"/>
<path d="M1801 2264 c0 -11 3 -14 6 -6 3 7 2 16 -1 19 -3 4 -6 -2 -5 -13z"/>
<path d="M1615 2060 c3 -5 8 -10 11 -10 2 0 4 5 4 10 0 6 -5 10 -11 10 -5 0
-7 -4 -4 -10z"/>
<path d="M186 1890 c-64 -72 -85 -136 -102 -315 -17 -174 -15 -203 32 -347 19
-59 34 -112 34 -118 0 -6 14 -28 30 -49 20 -25 35 -59 44 -103 8 -37 18 -73
22 -80 5 -7 9 -20 9 -28 2 -39 20 -87 40 -112 13 -15 25 -32 27 -38 4 -12 109
-41 121 -33 5 3 6 19 3 35 -4 21 -2 28 7 25 6 -2 12 -13 12 -24 0 -12 4 -25 9
-30 5 -5 6 -3 2 5 -6 11 -1 12 24 8 31 -4 32 -4 26 25 -7 34 11 38 58 14 31
-16 51 -11 26 6 -13 10 -13 10 0 6 8 -2 20 1 27 8 9 10 5 13 -20 11 -18 0 -35
-5 -39 -11 -5 -6 -8 -5 -8 3 0 6 -8 12 -19 12 -10 0 -24 7 -31 15 -15 17 -7
19 21 5 17 -10 18 -9 8 14 -6 13 -21 29 -33 35 -19 11 -19 11 7 6 30 -6 36 9
10 24 -11 7 -13 11 -5 11 9 0 11 7 7 23 -5 17 -4 19 4 7 10 -13 12 -13 21 0 5
8 14 16 20 16 5 1 15 2 20 3 7 1 6 6 -2 14 -7 8 -21 12 -32 9 -13 -3 -17 -1
-12 7 4 6 0 18 -9 27 -12 12 -13 19 -4 30 6 7 8 18 4 24 -3 5 1 10 9 10 11 0
13 6 6 29 -9 34 -3 46 17 30 10 -9 13 -7 14 7 4 40 5 50 13 67 5 11 15 16 24
12 12 -4 13 -3 2 10 -10 12 -10 15 1 15 8 0 5 6 -7 15 -10 8 -14 15 -8 15 13
0 36 48 26 54 -5 3 -14 1 -22 -5 -8 -5 -28 -9 -43 -9 -15 0 -30 -7 -33 -15 -4
-8 -9 -13 -13 -10 -4 2 -24 5 -43 7 -25 1 -34 6 -31 15 3 8 -3 13 -17 13 -11
0 -18 -4 -15 -10 3 -5 -1 -10 -9 -10 -9 0 -13 -6 -10 -14 3 -8 1 -17 -5 -20
-6 -4 -8 -13 -5 -20 3 -8 -7 -21 -25 -32 -16 -10 -27 -22 -24 -28 4 -6 0 -5
-9 2 -13 10 -19 10 -31 -3 -18 -17 -37 -20 -37 -5 0 6 -4 10 -10 10 -5 0 -10
-7 -10 -15 0 -21 -64 -20 -84 1 -20 20 -20 25 1 17 13 -5 15 -3 8 13 -4 10
-10 30 -13 44 -3 14 -10 28 -16 32 -8 6 -8 8 0 8 11 0 10 21 -3 115 -4 28 -7
93 -7 146 1 86 4 102 31 162 17 36 29 67 27 70 -3 2 11 35 30 73 23 45 33 76
30 91 -4 13 -10 23 -14 23 -5 0 -29 -23 -54 -50z m334 -890 c0 -5 -2 -10 -4
-10 -3 0 -8 5 -11 10 -3 6 -1 10 4 10 6 0 11 -4 11 -10z m-3 -287 c3 -7 -3 -9
-16 -6 -12 3 -21 10 -21 15 0 13 32 6 37 -9z"/>
<path d="M1530 1871 c0 -5 7 -11 15 -15 8 -3 15 -1 15 3 0 5 -7 11 -15 15 -8
3 -15 1 -15 -3z"/>
<path d="M1400 1730 c0 -5 5 -10 10 -10 6 0 10 5 10 10 0 6 -4 10 -10 10 -5 0
-10 -4 -10 -10z"/>
<path d="M1396 1695 c-3 -9 -6 -23 -6 -31 0 -17 30 -19 31 -1 0 6 3 5 7 -4 6
-14 9 -15 20 -3 9 10 9 14 1 14 -7 0 -9 9 -6 21 4 15 2 18 -7 10 -9 -7 -16 -7
-23 0 -7 7 -12 5 -17 -6z"/>
<path d="M1365 1680 c3 -5 8 -10 11 -10 2 0 4 5 4 10 0 6 -5 10 -11 10 -5 0
-7 -4 -4 -10z"/>
<path d="M1290 1650 c0 -5 5 -10 10 -10 6 0 10 5 10 10 0 6 -4 10 -10 10 -5 0
-10 -4 -10 -10z"/>
<path d="M1090 1391 c0 -5 9 -7 20 -4 11 3 20 7 20 9 0 2 -9 4 -20 4 -11 0
-20 -4 -20 -9z"/>
<path d="M1063 1084 c-16 -17 -17 -27 -1 -18 6 4 8 3 5 -3 -3 -5 -24 -18 -47
-28 -46 -21 -50 -32 -15 -45 31 -12 33 -24 3 -14 -21 6 -21 5 -9 -10 13 -15
16 -15 38 5 12 13 23 17 23 11 0 -7 5 -12 10 -12 6 0 9 3 9 8 -4 21 3 32 17
32 13 0 14 3 4 15 -7 8 -17 12 -22 9 -7 -4 -7 0 0 12 5 11 7 26 3 35 -5 14 -8
15 -18 3z"/>
<path d="M1100 990 c0 -5 5 -10 10 -10 6 0 10 5 10 10 0 6 -4 10 -10 10 -5 0
-10 -4 -10 -10z"/>
<path d="M0 872 c0 -10 7 -27 15 -38 10 -13 13 -14 10 -3 -3 9 1 22 10 29 22
18 18 30 -10 30 -17 0 -25 -5 -25 -18z"/>
<path d="M1400 824 c-13 -13 -20 -24 -14 -24 12 0 50 38 43 44 -2 2 -15 -7
-29 -20z"/>
<path d="M1268 823 c6 -2 18 -2 25 0 6 3 1 5 -13 5 -14 0 -19 -2 -12 -5z"/>
<path d="M631 801 c-8 -5 -9 -11 -3 -15 5 -3 12 1 16 9 6 17 6 18 -13 6z"/>
<path d="M1225 801 c-3 -5 -1 -12 4 -15 5 -3 11 1 15 9 6 16 -9 21 -19 6z"/>
<path d="M575 790 c3 -5 8 -10 11 -10 2 0 4 5 4 10 0 6 -5 10 -11 10 -5 0 -7
-4 -4 -10z"/>
<path d="M1367 774 c-3 -3 -3 -13 0 -21 5 -12 7 -12 14 -1 15 23 4 40 -14 22z"/>
<path d="M660 749 c0 -5 5 -7 10 -4 6 3 10 8 10 11 0 2 -4 4 -10 4 -5 0 -10
-5 -10 -11z"/>
<path d="M550 689 c0 -5 5 -7 10 -4 6 3 10 8 10 11 0 2 -4 4 -10 4 -5 0 -10
-5 -10 -11z"/>
<path d="M545 660 c-3 -5 -1 -10 4 -10 6 0 11 5 11 10 0 6 -2 10 -4 10 -3 0
-8 -4 -11 -10z"/>
<path d="M1392 494 c-11 -12 -8 -14 19 -14 18 0 30 1 28 3 -2 1 -11 8 -19 14
-11 8 -18 8 -28 -3z"/>
<path d="M2285 379 c-11 -17 1 -21 15 -4 8 9 8 15 2 15 -6 0 -14 -5 -17 -11z"/>
<path d="M2487 343 c-4 -3 -7 -11 -7 -17 0 -6 5 -5 12 2 6 6 9 14 7 17 -3 3
-9 2 -12 -2z"/>
<path d="M2502 300 c0 -14 2 -19 5 -12 2 6 2 18 0 25 -3 6 -5 1 -5 -13z"/>
<path d="M1056 121 c-4 -5 -1 -13 5 -17 8 -4 7 -9 -2 -15 -15 -9 -23 -89 -8
-89 5 0 9 15 9 34 0 19 5 38 10 41 13 8 13 42 1 50 -5 3 -12 1 -15 -4z"/>
<path d="M1086 68 c-3 -13 -6 -33 -6 -45 0 -21 5 -23 45 -23 l45 0 -33 44
c-17 25 -35 45 -38 45 -4 1 -9 -9 -13 -21z"/>
</g>
</svg>
